<svg width="1600" height="900" viewBox="0 0 1600 900" fill="none" xmlns="http://www.w3.org/2000/svg">
  <rect width="1600" height="900" rx="48" fill="url(#paint0_radial_hero)" />
  <g opacity="0.32" stroke="rgba(255,255,255,0.3)">
    <path d="M0 162.5H1600" />
    <path d="M0 325H1600" />
    <path d="M0 487.5H1600" />
    <path d="M0 650H1600" />
    <path d="M0 812.5H1600" />
    <path d="M160 0V900" />
    <path d="M320 0V900" />
    <path d="M480 0V900" />
    <path d="M640 0V900" />
    <path d="M800 0V900" />
    <path d="M960 0V900" />
    <path d="M1120 0V900" />
    <path d="M1280 0V900" />
    <path d="M1440 0V900" />
  </g>
  <g filter="url(#shadow_hero)">
    <path d="M180 620L260 470L360 505L440 360L560 410L660 300L760 340L840 260L940 335L1020 260L1150 330L1260 260L1360 315L1460 260" stroke="url(#paint1_linear_hero)" stroke-width="10" stroke-linecap="round" stroke-linejoin="round" />
  </g>
  <g fill="#1B2139" opacity="0.85">
    <rect x="220" y="430" width="36" height="180" rx="10" />
    <rect x="320" y="470" width="36" height="140" rx="10" />
    <rect x="420" y="380" width="36" height="230" rx="10" />
    <rect x="520" y="420" width="36" height="190" rx="10" />
    <rect x="620" y="320" width="36" height="290" rx="10" />
    <rect x="720" y="360" width="36" height="250" rx="10" />
    <rect x="820" y="280" width="36" height="330" rx="10" />
    <rect x="920" y="350" width="36" height="260" rx="10" />
    <rect x="1020" y="280" width="36" height="330" rx="10" />
    <rect x="1120" y="320" width="36" height="290" rx="10" />
    <rect x="1220" y="260" width="36" height="350" rx="10" />
    <rect x="1320" y="310" width="36" height="300" rx="10" />
  </g>
  <defs>
    <radialGradient id="paint0_radial_hero" cx="0" cy="0" r="1" gradientUnits="userSpaceOnUse" gradientTransform="translate(400 180) rotate(35) scale(1500 1200)">
      <stop stop-color="#4856FF" />
      <stop offset="0.45" stop-color="#2835A6" />
      <stop offset="1" stop-color="#0B1024" />
    </radialGradient>
    <linearGradient id="paint1_linear_hero" x1="180" y1="620" x2="1460" y2="260" gradientUnits="userSpaceOnUse">
      <stop stop-color="#9AE8FF" />
      <stop offset="0.52" stop-color="#76A8FF" />
      <stop offset="1" stop-color="#F8B4FF" />
    </linearGradient>
    <filter id="shadow_hero" x="120" y="200" width="1400" height="520" filterUnits="userSpaceOnUse" color-interpolation-filters="sRGB">
      <feFlood flood-opacity="0" result="BackgroundImageFix" />
      <feGaussianBlur in="SourceGraphic" stdDeviation="12" />
    </filter>
  </defs>
</svg>
