<svg width="1200" height="800" viewBox="0 0 1200 800" fill="none" xmlns="http://www.w3.org/2000/svg">
  <rect width="1200" height="800" rx="40" fill="url(#paint0_linear_impulse)" />
  <g opacity="0.14" stroke="#FFFFFF" stroke-width="1.2">
    <path d="M0 120H1200" />
    <path d="M0 240H1200" />
    <path d="M0 360H1200" />
    <path d="M0 480H1200" />
    <path d="M0 600H1200" />
    <path d="M150 0V800" />
    <path d="M300 0V800" />
    <path d="M450 0V800" />
    <path d="M600 0V800" />
    <path d="M750 0V800" />
    <path d="M900 0V800" />
    <path d="M1050 0V800" />
  </g>
  <g opacity="0.75">
    <rect x="180" y="300" width="34" height="220" rx="12" fill="#0E1326" />
    <rect x="230" y="240" width="34" height="280" rx="12" fill="#15224B" />
    <rect x="280" y="210" width="34" height="310" rx="12" fill="#0E1326" />
    <rect x="330" y="260" width="34" height="260" rx="12" fill="#15224B" />
    <rect x="380" y="180" width="34" height="340" rx="12" fill="#0E1326" />
    <rect x="430" y="140" width="34" height="380" rx="12" fill="#1B2F66" />
    <rect x="480" y="160" width="34" height="360" rx="12" fill="#0E1326" />
    <rect x="530" y="190" width="34" height="330" rx="12" fill="#1B2F66" />
    <rect x="580" y="250" width="34" height="270" rx="12" fill="#0E1326" />
    <rect x="630" y="210" width="34" height="310" rx="12" fill="#1B2F66" />
    <rect x="680" y="170" width="34" height="350" rx="12" fill="#0E1326" />
    <rect x="730" y="200" width="34" height="320" rx="12" fill="#1B2F66" />
    <rect x="780" y="260" width="34" height="260" rx="12" fill="#0E1326" />
    <rect x="830" y="300" width="34" height="220" rx="12" fill="#1B2F66" />
    <rect x="880" y="340" width="34" height="180" rx="12" fill="#0E1326" />
  </g>
  <path d="M160 520C250 420 360 380 440 270C540 140 660 120 800 230C900 308 980 282 1060 210" stroke="#86F9FF" stroke-width="9" stroke-linecap="round" stroke-linejoin="round" opacity="0.8" />
  <defs>
    <linearGradient id="paint0_linear_impulse" x1="0" y1="0" x2="1200" y2="800" gradientUnits="userSpaceOnUse">
      <stop offset="0.08" stop-color="#1B2144" />
      <stop offset="0.45" stop-color="#18204A" />
      <stop offset="1" stop-color="#090B1A" />
    </linearGradient>
  </defs>
</svg>
