<svg width="1200" height="800" viewBox="0 0 1200 800" fill="none" xmlns="http://www.w3.org/2000/svg">
  <rect width="1200" height="800" rx="40" fill="url(#paint0_radial_session)" />
  <g opacity="0.18" stroke="rgba(255,255,255,0.45)" stroke-width="1.1">
    <path d="M0 200H1200" />
    <path d="M0 400H1200" />
    <path d="M0 600H1200" />
    <path d="M200 0V800" />
    <path d="M400 0V800" />
    <path d="M600 0V800" />
    <path d="M800 0V800" />
    <path d="M1000 0V800" />
  </g>
  <g opacity="0.8">
    <path d="M180 540L240 380L320 420L380 300L440 360L520 220L600 260L680 180L760 240L840 160L920 210L1000 150L1080 220L1140 160" stroke="#F6D76F" stroke-width="10" stroke-linecap="round" stroke-linejoin="round" />
    <circle cx="240" cy="380" r="14" fill="#FFD166" />
    <circle cx="380" cy="300" r="14" fill="#FFD166" />
    <circle cx="520" cy="220" r="14" fill="#FFD166" />
    <circle cx="680" cy="180" r="14" fill="#FFD166" />
    <circle cx="840" cy="160" r="14" fill="#FFD166" />
    <circle cx="1000" cy="150" r="14" fill="#FFD166" />
  </g>
  <g opacity="0.55" fill="#061635">
    <rect x="210" y="420" width="32" height="160" rx="10" />
    <rect x="260" y="360" width="32" height="220" rx="10" />
    <rect x="310" y="330" width="32" height="250" rx="10" />
    <rect x="360" y="380" width="32" height="200" rx="10" />
    <rect x="410" y="280" width="32" height="300" rx="10" />
    <rect x="460" y="240" width="32" height="340" rx="10" />
    <rect x="510" y="260" width="32" height="320" rx="10" />
    <rect x="560" y="200" width="32" height="380" rx="10" />
    <rect x="610" y="220" width="32" height="360" rx="10" />
    <rect x="660" y="160" width="32" height="420" rx="10" />
    <rect x="710" y="190" width="32" height="390" rx="10" />
    <rect x="760" y="140" width="32" height="440" rx="10" />
    <rect x="810" y="180" width="32" height="400" rx="10" />
    <rect x="860" y="130" width="32" height="450" rx="10" />
    <rect x="910" y="170" width="32" height="410" rx="10" />
    <rect x="960" y="120" width="32" height="460" rx="10" />
    <rect x="1010" y="160" width="32" height="420" rx="10" />
  </g>
  <defs>
    <radialGradient id="paint0_radial_session" cx="0" cy="0" r="1" gradientUnits="userSpaceOnUse" gradientTransform="translate(300 160) rotate(40) scale(1300 900)">
      <stop stop-color="#2D5DFF" />
      <stop offset="0.55" stop-color="#1C2A68" />
      <stop offset="1" stop-color="#070B1A" />
    </radialGradient>
  </defs>
</svg>
